<svg width="96" height="96" viewBox="0 0 96 96" fill="none" xmlns="http://www.w3.org/2000/svg">
<g clip-path="url(#clip0)">
<g clip-path="url(#clip1)">
<path d="M48.5321 94C73.8015 94 94.2864 73.4051 94.2864 48C94.2864 22.5949 73.8015 2 48.5321 2C23.2627 2 2.77777 22.5949 2.77777 48C2.77777 73.4051 23.2627 94 48.5321 94Z" fill="#FEF0AE"/>
<path d="M30.1986 48C30.1986 27.397 43.6741 9.95845 62.2451 4.10165C57.9165 2.73653 53.3088 2 48.5321 2C23.2624 2 2.77777 22.5947 2.77777 48C2.77777 73.4053 23.2624 94 48.5321 94C53.3088 94 57.9179 93.263 62.2465 91.8978C43.6755 86.0413 30.1986 68.603 30.1986 48Z" fill="#FEE97D"/>
<path d="M94.2771 48.7691H94.279C94.1719 55.4267 92.6563 61.7403 90.0208 67.4222L90.0173 67.4203C86.4854 65.9823 83.994 62.504 83.994 58.4367C83.994 53.0854 88.3094 48.7469 93.6321 48.7469C93.8483 48.7469 94.0628 48.7562 94.2771 48.7691Z" fill="#FEE97D"/>
<path d="M48.5321 86.789C52.5184 86.789 55.8691 89.5333 56.8117 93.2476C54.1265 93.7417 51.3599 94 48.5321 94C45.7043 94 42.9378 93.7417 40.2525 93.2476C41.1951 89.5333 44.5458 86.789 48.5321 86.789Z" fill="#FEDF30"/>
<path d="M59.5748 66.2684C62.6555 66.2684 65.1542 68.7806 65.1542 71.8778C65.1542 74.9772 62.6555 77.4874 59.5748 77.4874C56.4919 77.4874 53.9935 74.9772 53.9935 71.8778C53.9935 68.7806 56.4919 66.2684 59.5748 66.2684Z" fill="#FEE97D"/>
<path d="M69.6915 61.1012C71.8706 61.1012 73.6372 59.3251 73.6372 57.1343C73.6372 54.9434 71.8706 53.1673 69.6915 53.1673C67.5123 53.1673 65.7457 54.9434 65.7457 57.1343C65.7457 59.3251 67.5123 61.1012 69.6915 61.1012Z" fill="#FEE97D"/>
<path d="M61.1937 46.5766C67.0576 46.5766 71.8113 41.7976 71.8113 35.9022C71.8113 30.0068 67.0576 25.2276 61.1937 25.2276C55.3298 25.2276 50.5761 30.0068 50.5761 35.9022C50.5761 41.7976 55.3298 46.5766 61.1937 46.5766Z" fill="#FEE97D"/>
<path d="M30.1986 63.1933C33.574 63.1933 36.3105 60.4424 36.3105 57.0486C36.3105 53.6551 33.574 50.9042 30.1986 50.9042C26.8232 50.9042 24.0867 53.6551 24.0867 57.0486C24.0867 60.4424 26.8232 63.1933 30.1986 63.1933Z" fill="#FEE45A"/>
<path d="M30.1986 63.1933C31.0459 63.1933 31.8531 63.0196 32.5868 62.7059C31.3323 58.9649 30.5431 55.0087 30.2887 50.9063C30.2586 50.9061 30.229 50.9042 30.1986 50.9042C26.822 50.9042 24.0867 53.6558 24.0867 57.0486C24.0867 60.4417 26.822 63.1933 30.1986 63.1933Z" fill="#FEDF30"/>
<path d="M18.8546 37.595C20.9154 37.595 22.5861 39.2746 22.5861 41.3446C22.5861 43.4162 20.9154 45.0958 18.8546 45.0958C16.794 45.0958 15.1253 43.4162 15.1253 41.3446C15.1253 39.2746 16.794 37.595 18.8546 37.595Z" fill="#FEDF30"/>
<path d="M34.8096 4.10702C35.2237 5.64363 35.4473 7.26014 35.4473 8.92868C35.4473 19.0793 27.2618 27.3086 17.1636 27.3086C14.1327 27.3086 11.2736 26.5654 8.75642 25.2536H8.75476C14.4193 15.2609 23.7024 7.61131 34.8096 4.10516V4.10702Z" fill="#FEDF30"/>
<g clip-path="url(#clip2)">
<path d="M31.4774 78.25V69.5H22.7387V60.75H14V34.5H22.7387V25.75H31.4774V17H75.171V25.75H40.2161V34.5H31.4774V60.75H40.2161V69.5H57.6936V52H48.9548V43.25H75.171V78.25H31.4774ZM110.126 25.75V17H127.603V25.75H110.126ZM92.6484 78.25V69.5H110.126V43.25H101.387V34.5H127.603V69.5H145.081V78.25H92.6484ZM153.819 87V34.5H206.252V43.25H214.99V60.75H206.252V69.5H171.297V87H153.819ZM171.297 60.75H197.513V43.25H171.297V60.75ZM223.729 78.25V17H241.206V34.5H276.161V43.25H284.9V78.25H267.423V43.25H241.206V78.25H223.729ZM40.2161 95.75V87H57.6936V95.75H40.2161ZM22.7387 148.25V139.5H40.2161V113.25H31.4774V104.5H57.6936V139.5H75.171V148.25H22.7387ZM92.6484 148.25V139.5H83.9097V113.25H92.6484V104.5H136.342V113.25H145.081V130.75H101.387V139.5H136.342V148.25H92.6484ZM101.387 122H127.603V113.25H101.387V122ZM153.819 148.25V139.5H197.513V130.75H162.558V122H153.819V113.25H162.558V104.5H206.252V113.25H171.297V122H206.252V130.75H214.99V139.5H206.252V148.25H153.819Z" fill="black"/>
</g>
</g>
</g>
<defs>
<clipPath id="clip0">
<rect width="96" height="96" fill="white"/>
</clipPath>
<clipPath id="clip1">
<rect width="110" height="92" fill="white" transform="translate(-7 2)"/>
</clipPath>
<clipPath id="clip2">
<rect width="63" height="63" fill="white" transform="translate(14 17)"/>
</clipPath>
</defs>
</svg>
