<svg width="96" height="96" viewBox="0 0 96 96" fill="none" xmlns="http://www.w3.org/2000/svg">
<rect width="96" height="96" fill="white"/>
<g clip-path="url(#clip0)">
<path d="M55.5646 85C76.2396 85 93 68.2107 93 47.5C93 26.7893 76.2396 10 55.5646 10C34.8897 10 18.1293 26.7893 18.1293 47.5C18.1293 68.2107 34.8897 85 55.5646 85Z" fill="#FEF0AE"/>
<path d="M40.5645 47.5C40.5645 30.7041 51.5899 16.4879 66.7844 11.7133C63.2428 10.6004 59.4729 10 55.5646 10C34.8895 10 18.1293 26.7892 18.1293 47.5C18.1293 68.2109 34.8895 85 55.5646 85C59.4729 85 63.2439 84.3992 66.7856 83.2863C51.5911 78.5119 40.5645 64.2959 40.5645 47.5Z" fill="#FEE97D"/>
<path d="M92.9924 48.127H92.994C92.9063 53.5544 91.6663 58.7014 89.51 63.3333L89.5071 63.3318C86.6174 62.1595 84.579 59.3239 84.579 56.0082C84.579 51.6457 88.1097 48.1089 92.4646 48.1089C92.6415 48.1089 92.8171 48.1165 92.9924 48.127Z" fill="#FEE97D"/>
<path d="M55.5647 79.1215C58.8262 79.1215 61.5677 81.3586 62.3389 84.3866C60.1418 84.7894 57.8783 85 55.5647 85C53.251 85 50.9875 84.7894 48.7904 84.3866C49.5616 81.3586 52.3031 79.1215 55.5647 79.1215Z" fill="#FEDF30"/>
<path d="M64.5996 62.3928C67.1201 62.3928 69.1645 64.4407 69.1645 66.9656C69.1645 69.4923 67.1201 71.5387 64.5996 71.5387C62.0772 71.5387 60.033 69.4923 60.033 66.9656C60.033 64.4407 62.0772 62.3928 64.5996 62.3928Z" fill="#FEE97D"/>
<path d="M72.8769 58.1803C74.6598 58.1803 76.1052 56.7324 76.1052 54.9464C76.1052 53.1604 74.6598 51.7125 72.8769 51.7125C71.0939 51.7125 69.6485 53.1604 69.6485 54.9464C69.6485 56.7324 71.0939 58.1803 72.8769 58.1803Z" fill="#FEE97D"/>
<path d="M65.9242 46.3396C70.7219 46.3396 74.6113 42.4437 74.6113 37.6377C74.6113 32.8317 70.7219 28.9355 65.9242 28.9355C61.1264 28.9355 57.237 32.8317 57.237 37.6377C57.237 42.4437 61.1264 46.3396 65.9242 46.3396Z" fill="#FEE97D"/>
<path d="M40.5645 59.8859C43.3262 59.8859 45.5652 57.6433 45.5652 54.8766C45.5652 52.1102 43.3262 49.8676 40.5645 49.8676C37.8028 49.8676 35.5639 52.1102 35.5639 54.8766C35.5639 57.6433 37.8028 59.8859 40.5645 59.8859Z" fill="#FEE45A"/>
<path d="M40.5645 59.8859C41.2578 59.8859 41.9182 59.7442 42.5185 59.4885C41.4921 56.4388 40.8464 53.2136 40.6382 49.8693C40.6136 49.8691 40.5894 49.8676 40.5645 49.8676C37.8019 49.8676 35.5639 52.1108 35.5639 54.8766C35.5639 57.6427 37.8019 59.8859 40.5645 59.8859Z" fill="#FEDF30"/>
<path d="M31.2831 39.0176C32.9692 39.0176 34.3361 40.3869 34.3361 42.0744C34.3361 43.7632 32.9692 45.1325 31.2831 45.1325C29.5971 45.1325 28.2318 43.7632 28.2318 42.0744C28.2318 40.3869 29.5971 39.0176 31.2831 39.0176Z" fill="#FEDF30"/>
<path d="M44.3371 11.7177C44.676 12.9704 44.8589 14.2882 44.8589 15.6484C44.8589 23.9233 38.1617 30.632 29.8995 30.632C27.4197 30.632 25.0804 30.0262 23.0209 28.9568H23.0196C27.6542 20.8106 35.2495 14.5745 44.3371 11.7162V11.7177Z" fill="#FEDF30"/>
<path d="M7.84914 28.75V26.3213H5.42457V23.8925H3V16.6062H5.42457V14.1775H7.84914V11.7487H19.972V14.1775H10.2737V16.6062H7.84914V23.8925H10.2737V26.3213H15.1228V21.4637H12.6983V19.035H19.972V28.75H7.84914ZM29.6703 14.1775V11.7487H34.5194V14.1775H29.6703ZM24.8211 28.75V26.3213H29.6703V19.035H27.2457V16.6062H34.5194V26.3213H39.3685V28.75H24.8211ZM41.7931 31.1788V16.6062H56.3405V19.035H58.7651V23.8925H56.3405V26.3213H46.6422V31.1788H41.7931ZM46.6422 23.8925H53.9159V19.035H46.6422V23.8925ZM61.1897 28.75V11.7487H66.0388V16.6062H75.7371V19.035H78.1616V28.75H73.3125V19.035H66.0388V28.75H61.1897ZM10.2737 33.6075V31.1788H15.1228V33.6075H10.2737ZM5.42457 48.1801V45.7513H10.2737V38.465H7.84914V36.0363H15.1228V45.7513H19.972V48.1801H5.42457ZM24.8211 48.1801V45.7513H22.3966V38.465H24.8211V36.0363H36.944V38.465H39.3685V43.3226H27.2457V45.7513H36.944V48.1801H24.8211ZM27.2457 40.8938H34.5194V38.465H27.2457V40.8938ZM41.7931 48.1801V45.7513H53.9159V43.3226H44.2177V40.8938H41.7931V38.465H44.2177V36.0363H56.3405V38.465H46.6422V40.8938H56.3405V43.3226H58.7651V45.7513H56.3405V48.1801H41.7931Z" fill="black"/>
</g>
<defs>
<clipPath id="clip0">
<rect width="90" height="75" fill="white" transform="translate(3 10)"/>
</clipPath>
</defs>
</svg>
