<svg width="464" height="386" viewBox="0 0 464 386" fill="none" xmlns="http://www.w3.org/2000/svg">
<path d="M271 386C377.591 386 464 299.591 464 193C464 86.409 377.591 0 271 0C164.409 0 78 86.409 78 193C78 299.591 164.409 386 271 386Z" fill="#FEF0AE"/>
<path d="M193.666 193C193.666 106.557 250.508 33.3909 328.844 8.8178C310.585 3.09024 291.149 0 271 0C164.408 0 78 86.4084 78 193C78 299.592 164.408 386 271 386C291.149 386 310.591 382.908 328.85 377.18C250.514 352.608 193.666 279.443 193.666 193V193Z" fill="#FEE97D"/>
<path d="M463.961 196.227H463.969C463.517 224.16 457.124 250.65 446.007 274.489L445.992 274.481C431.094 268.448 420.585 253.854 420.585 236.789C420.585 214.337 438.788 196.134 461.24 196.134C462.152 196.134 463.057 196.173 463.961 196.227V196.227Z" fill="#FEE97D"/>
<path d="M271 355.745C287.815 355.745 301.949 367.259 305.925 382.843C294.598 384.916 282.928 386 271 386C259.072 386 247.402 384.916 236.075 382.843C240.051 367.259 254.185 355.745 271 355.745Z" fill="#FEDF30"/>
<path d="M317.58 269.648C330.575 269.648 341.115 280.188 341.115 293.183C341.115 306.187 330.575 316.719 317.58 316.719C304.576 316.719 294.037 306.187 294.037 293.183C294.037 280.188 304.576 269.648 317.58 269.648Z" fill="#FEE97D"/>
<path d="M360.254 247.968C369.446 247.968 376.898 240.516 376.898 231.324C376.898 222.132 369.446 214.68 360.254 214.68C351.062 214.68 343.61 222.132 343.61 231.324C343.61 240.516 351.062 247.968 360.254 247.968Z" fill="#FEE97D"/>
<path d="M324.409 187.028C349.144 187.028 369.196 166.977 369.196 142.242C369.196 117.507 349.144 97.455 324.409 97.455C299.674 97.455 279.622 117.507 279.622 142.242C279.622 166.977 299.674 187.028 324.409 187.028Z" fill="#FEE97D"/>
<path d="M193.666 256.746C207.904 256.746 219.447 245.204 219.447 230.965C219.447 216.727 207.904 205.185 193.666 205.185C179.428 205.185 167.885 216.727 167.885 230.965C167.885 245.204 179.428 256.746 193.666 256.746Z" fill="#FEE45A"/>
<path d="M193.666 256.746C197.24 256.746 200.645 256.017 203.74 254.701C198.448 239.005 195.119 222.406 194.046 205.194C193.919 205.193 193.794 205.185 193.666 205.185C179.423 205.185 167.885 216.73 167.885 230.965C167.885 245.201 179.423 256.746 193.666 256.746Z" fill="#FEDF30"/>
<path d="M145.815 149.344C154.508 149.344 161.555 156.391 161.555 165.076C161.555 173.768 154.508 180.815 145.815 180.815C137.123 180.815 130.084 173.768 130.084 165.076C130.084 156.391 137.123 149.344 145.815 149.344V149.344Z" fill="#FEDF30"/>
<path d="M213.116 8.84041C214.863 15.2875 215.806 22.0698 215.806 29.0704C215.806 71.6588 181.278 106.186 138.682 106.186C125.897 106.186 113.837 103.068 103.219 97.5641H103.212C127.106 55.6384 166.264 23.5432 213.116 8.83261V8.84041Z" fill="#FEDF30"/>
<path d="M25 96.5V84H12.5V71.5H0V34H12.5V21.5H25V9H87.5V21.5H37.5V34H25V71.5H37.5V84H62.5V59H50V46.5H87.5V96.5H25ZM137.5 21.5V9H162.5V21.5H137.5ZM112.5 96.5V84H137.5V46.5H125V34H162.5V84H187.5V96.5H112.5ZM200 109V34H275V46.5H287.5V71.5H275V84H225V109H200ZM225 71.5H262.5V46.5H225V71.5ZM300 96.5V9H325V34H375V46.5H387.5V96.5H362.5V46.5H325V96.5H300ZM37.5 121.5V109H62.5V121.5H37.5ZM12.5 196.5V184H37.5V146.5H25V134H62.5V184H87.5V196.5H12.5ZM112.5 196.5V184H100V146.5H112.5V134H175V146.5H187.5V171.5H125V184H175V196.5H112.5ZM125 159H162.5V146.5H125V159ZM200 196.5V184H262.5V171.5H212.5V159H200V146.5H212.5V134H275V146.5H225V159H275V171.5H287.5V184H275V196.5H200Z" fill="black"/>
</svg>
