<svg width="1188" height="300" viewBox="0 0 1188 300" fill="none" xmlns="http://www.w3.org/2000/svg">
<path d="M0 87.5V0H75V12.5H87.5V50H75V62.5H25V87.5H0ZM25 50H62.5V12.5H25V50ZM112.5 87.5V75H100V37.5H112.5V25H175V37.5H187.5V75H175V87.5H112.5ZM125 75H162.5V37.5H125V75ZM200 100V25H275V37.5H287.5V62.5H275V75H225V100H200ZM225 62.5H262.5V37.5H225V62.5ZM312.5 87.5V75H300V25H325V75H362.5V25H387.5V87.5H312.5ZM412.5 87.5V75H437.5V12.5H425V0H462.5V75H487.5V87.5H412.5ZM512.5 87.5V75H500V62.5H512.5V50H562.5V37.5H512.5V25H575V37.5H587.5V87.5H512.5ZM525 75H562.5V62.5H525V75ZM637.5 37.5H650V50H637.5V87.5H612.5V25H637.5V37.5ZM687.5 25V37.5H650V25H687.5ZM812.5 100V87.5H862.5V75H812.5V62.5H800V37.5H812.5V25H887.5V87.5H875V100H812.5ZM825 62.5H862.5V37.5H825V62.5ZM937.5 12.5V0H962.5V12.5H937.5ZM912.5 87.5V75H937.5V37.5H925V25H962.5V75H987.5V87.5H912.5ZM1037.5 87.5V37.5H1012.5V25H1037.5V12.5H1050V0H1087.5V12.5H1062.5V25H1087.5V37.5H1062.5V87.5H1037.5ZM1100 87.5V75H1162.5V62.5H1112.5V50H1100V37.5H1112.5V25H1175V37.5H1125V50H1175V62.5H1187.5V75H1175V87.5H1100ZM487.5 187.5V137.5H462.5V125H487.5V112.5H500V100H537.5V112.5H512.5V125H537.5V137.5H512.5V187.5H487.5ZM562.5 187.5V175H550V137.5H562.5V125H625V137.5H637.5V175H625V187.5H562.5ZM575 175H612.5V137.5H575V175ZM687.5 137.5H700V150H687.5V187.5H662.5V125H687.5V137.5ZM737.5 125V137.5H700V125H737.5ZM162.5 287.5V275H150V237.5H162.5V225H225V237.5H237.5V262.5H175V275H225V287.5H162.5ZM175 250H212.5V237.5H175V250ZM287.5 287.5V275H275V262.5H262.5V225H287.5V262.5H312.5V225H337.5V262.5H325V275H312.5V287.5H287.5ZM362.5 287.5V275H350V237.5H362.5V225H425V237.5H437.5V262.5H375V275H425V287.5H362.5ZM375 250H412.5V237.5H375V250ZM487.5 237.5H500V250H487.5V287.5H462.5V225H487.5V237.5ZM537.5 225V237.5H500V225H537.5ZM562.5 300V287.5H612.5V275H562.5V262.5H550V225H575V262.5H612.5V225H637.5V287.5H625V300H562.5ZM662.5 287.5V275H650V200H675V225H725V237.5H737.5V275H725V287.5H662.5ZM675 275H712.5V237.5H675V275ZM762.5 287.5V275H750V237.5H762.5V225H825V237.5H837.5V275H825V287.5H762.5ZM775 275H812.5V237.5H775V275ZM862.5 287.5V275H850V237.5H862.5V225H912.5V200H937.5V287.5H862.5ZM875 275H912.5V237.5H875V275ZM962.5 300V287.5H1012.5V275H962.5V262.5H950V225H975V262.5H1012.5V225H1037.5V287.5H1025V300H962.5Z" fill="black"/>
</svg>
